# Blender 4.1.1
# www.blender.org
mtllib Three_1.mtl
o Tree_Type1_03_Model
v -3.909026 0.009761 -11.949757
v -3.996050 0.009761 -11.899513
v -4.083075 0.009761 -11.949757
v -4.083075 0.009761 -12.050243
v -3.996050 0.009761 -12.100487
v -3.909026 0.009761 -12.050243
v -3.909026 0.695200 -11.949757
v -3.996050 0.695200 -11.899513
v -4.083075 0.695200 -11.949757
v -4.083075 0.695200 -12.050243
v -3.996050 0.695200 -12.100487
v -3.909026 0.695200 -12.050243
v -3.122594 0.535322 -11.495710
v -3.996050 0.535322 -10.991420
v -4.869507 0.535322 -11.495710
v -4.869507 0.535322 -12.504290
v -3.996050 0.535322 -13.008580
v -3.122594 0.535322 -12.504290
v -3.648376 1.224634 -11.787959
v -4.015268 1.241188 -11.575918
v -4.382161 1.257742 -11.787959
v -4.382161 1.257742 -12.212041
v -4.015268 1.241188 -12.424082
v -3.648376 1.224634 -12.212041
v -3.249621 0.935084 -11.550438
v -4.027496 0.970181 -11.100875
v -4.805370 1.005278 -11.550437
v -4.805370 1.005278 -12.449563
v -4.027496 0.970181 -12.899125
v -3.249621 0.935084 -12.449562
v -3.721575 1.896994 -11.847674
v -3.985142 1.908887 -11.695350
v -4.248709 1.920778 -11.847674
v -4.248709 1.920778 -12.152326
v -3.985142 1.908887 -12.304650
v -3.721575 1.896994 -12.152326
v -3.434355 1.634616 -11.669766
v -4.004056 1.685635 -11.339533
v -4.573759 1.736654 -11.669766
v -4.573759 1.736654 -12.330234
v -4.004056 1.685635 -12.660467
v -3.434355 1.634616 -12.330234
v -3.879323 3.078464 -12.000000
vn -0.5000 -0.0000 0.8660
vn -1.0000 -0.0000 -0.0000
vn -0.5000 -0.0000 -0.8660
vn 0.0996 -0.9800 0.1725
vn -0.0000 -1.0000 -0.0000
vn 0.5000 -0.0000 0.8660
vn 1.0000 -0.0000 -0.0000
vn 0.5000 -0.0000 -0.8660
vn -0.4048 0.5711 -0.7142
vn -0.0996 -0.9800 0.1725
vn -0.1992 -0.9800 -0.0000
vn -0.0996 -0.9800 -0.1725
vn 0.0996 -0.9800 -0.1725
vn 0.1992 -0.9800 -0.0000
vn 0.2373 -0.8464 0.4767
vn 0.4080 0.5947 -0.6927
vn 0.7951 0.6065 -0.0000
vn 0.4080 0.5947 0.6927
vn -0.4048 0.5711 0.7142
vn -0.8290 0.5592 -0.0000
vn -0.4164 0.4998 -0.7595
vn -0.3126 -0.8216 0.4767
vn -0.5876 -0.8092 -0.0000
vn -0.3126 -0.8216 -0.4767
vn 0.2373 -0.8464 -0.4767
vn 0.5123 -0.8588 -0.0000
vn 0.2239 -0.8389 0.4960
vn 0.4597 0.4602 -0.7595
vn 0.8978 0.4405 -0.0000
vn 0.4597 0.4602 0.7595
vn -0.4164 0.4998 0.7595
vn -0.8544 0.5195 -0.0000
vn -0.3607 -0.7729 0.5220
vn -0.6745 -0.7383 -0.0000
vn -0.3607 -0.7729 -0.5220
vn 0.2239 -0.8389 -0.4960
vn 0.4929 -0.8701 -0.0000
vn -0.4272 0.4184 -0.8016
vn 0.4947 0.3358 -0.8016
vn 0.9556 0.2945 -0.0000
vn 0.4947 0.3358 0.8016
vn -0.4272 0.4184 0.8016
vn -0.8881 0.4596 -0.0000
vt 0.356470 0.852564
vt 0.385717 0.852564
vt 0.385717 0.881811
vt 0.356470 0.881811
vt 0.348658 0.350611
vt 0.377905 0.350611
vt 0.377905 0.379858
vt 0.348658 0.379858
vt 0.371094 0.881811
vt 0.383758 0.874499
vt 0.383758 0.859876
vt 0.371094 0.852564
vt 0.358429 0.859876
vt 0.358429 0.874499
s 0
usemtl _trees_normal
f 2/1/1 8/2/1 9/3/1 3/4/1
f 3/1/2 9/2/2 10/3/2 4/4/2
f 4/1/3 10/2/3 11/3/3 5/4/3
f 10/5/4 16/6/4 17/7/4 11/8/4
f 4/9/5 5/10/5 6/11/5 1/12/5 2/13/5 3/14/5
f 1/1/6 7/2/6 8/3/6 2/4/6
f 6/1/7 12/2/7 7/3/7 1/4/7
f 5/1/8 11/2/8 12/3/8 6/4/8
f 16/5/9 22/6/9 23/7/9 17/8/9
f 11/5/10 17/6/10 18/7/10 12/8/10
f 12/5/11 18/6/11 13/7/11 7/8/11
f 7/5/12 13/6/12 14/7/12 8/8/12
f 8/5/13 14/6/13 15/7/13 9/8/13
f 9/5/14 15/6/14 16/7/14 10/8/14
f 22/5/15 28/6/15 29/7/15 23/8/15
f 17/5/16 23/6/16 24/7/16 18/8/16
f 18/5/17 24/6/17 19/7/17 13/8/17
f 13/5/18 19/6/18 20/7/18 14/8/18
f 14/5/19 20/6/19 21/7/19 15/8/19
f 15/5/20 21/6/20 22/7/20 16/8/20
f 28/5/21 34/6/21 35/7/21 29/8/21
f 23/5/22 29/6/22 30/7/22 24/8/22
f 24/5/23 30/6/23 25/7/23 19/8/23
f 19/5/24 25/6/24 26/7/24 20/8/24
f 20/5/25 26/6/25 27/7/25 21/8/25
f 21/5/26 27/6/26 28/7/26 22/8/26
f 34/5/27 40/6/27 41/7/27 35/8/27
f 29/5/28 35/6/28 36/7/28 30/8/28
f 30/5/29 36/6/29 31/7/29 25/8/29
f 25/5/30 31/6/30 32/7/30 26/8/30
f 26/5/31 32/6/31 33/7/31 27/8/31
f 27/5/32 33/6/32 34/7/32 28/8/32
f 35/5/33 41/6/33 42/7/33 36/8/33
f 36/5/34 42/6/34 37/7/34 31/8/34
f 31/5/35 37/6/35 38/7/35 32/8/35
f 32/5/36 38/6/36 39/7/36 33/8/36
f 33/5/37 39/6/37 40/7/37 34/8/37
f 40/5/38 43/6/38 41/7/38
f 41/5/39 43/6/39 42/7/39
f 42/5/40 43/6/40 37/7/40
f 37/5/41 43/6/41 38/7/41
f 38/5/42 43/6/42 39/7/42
f 39/5/43 43/6/43 40/7/43
